<svg width="20" height="20" viewBox="0 0 20 20" fill="none" xmlns="http://www.w3.org/2000/svg">
    <mask id="mask0_174_381" style="mask-type:alpha" maskUnits="userSpaceOnUse" x="0" y="0" width="20" height="20">
    <rect width="20" height="20" fill="#D9D9D9"/>
    </mask>
    <g mask="url(#mask0_174_381)">
    <path d="M15.75 17.5L11.1875 12.9375L12.9375 11.1875L17.5 15.75L15.75 17.5ZM4.25004 17.5L2.50004 15.75L8.25004 9.99996L6.83337 8.58329L6.25004 9.16663L5.18754 8.10413V9.81246L4.60421 10.3958L2.08337 7.87496L2.66671 7.29163H4.37504L3.33337 6.24996L6.29171 3.29163C6.56949 3.01385 6.8681 2.81246 7.18754 2.68746C7.50699 2.56246 7.83337 2.49996 8.16671 2.49996C8.50004 2.49996 8.82643 2.56246 9.14587 2.68746C9.46532 2.81246 9.76393 3.01385 10.0417 3.29163L8.12504 5.20829L9.16671 6.24996L8.58337 6.83329L10 8.24996L11.875 6.37496C11.8195 6.22218 11.7743 6.06246 11.7396 5.89579C11.7049 5.72913 11.6875 5.56246 11.6875 5.39579C11.6875 4.57635 11.9688 3.88538 12.5313 3.32288C13.0938 2.76038 13.7848 2.47913 14.6042 2.47913C14.8125 2.47913 15.0105 2.49996 15.198 2.54163C15.3855 2.58329 15.5764 2.64579 15.7709 2.72913L13.7084 4.79163L15.2084 6.29163L17.2709 4.22913C17.3681 4.42357 17.4341 4.61454 17.4688 4.80204C17.5035 4.98954 17.5209 5.18746 17.5209 5.39579C17.5209 6.21524 17.2396 6.90621 16.6771 7.46871C16.1146 8.03121 15.4237 8.31246 14.6042 8.31246C14.4375 8.31246 14.2709 8.29857 14.1042 8.27079C13.9375 8.24301 13.7778 8.1944 13.625 8.12496L4.25004 17.5Z" fill="#0F8E38"/>
    </g>
    </svg>
    