<svg width="50" height="50" viewBox="0 0 50 50" fill="none" xmlns="http://www.w3.org/2000/svg">
    <mask id="mask0_137_171" style="mask-type:alpha" maskUnits="userSpaceOnUse" x="0" y="0" width="50" height="50">
    <rect width="50" height="50" fill="#D9D9D9"/>
    </mask>
    <g mask="url(#mask0_137_171)">
    <path d="M4.16669 41.6667V20.8333C4.16669 19.6875 4.57467 18.7066 5.39065 17.8906C6.20662 17.0746 7.18752 16.6667 8.33335 16.6667H14.5834V12.5C14.5834 11.3542 14.9913 10.3733 15.8073 9.55729C16.6233 8.74131 17.6042 8.33333 18.75 8.33333H31.25C32.3959 8.33333 33.3768 8.74131 34.1927 9.55729C35.0087 10.3733 35.4167 11.3542 35.4167 12.5V16.6667H41.6667C42.8125 16.6667 43.7934 17.0746 44.6094 17.8906C45.4254 18.7066 45.8334 19.6875 45.8334 20.8333V41.6667H4.16669ZM16.6667 31.25V33.3333H12.5V31.25H8.33335V37.5H41.6667V31.25H37.5V33.3333H33.3334V31.25H16.6667ZM8.33335 20.8333V27.0833H12.5V25H16.6667V27.0833H33.3334V25H37.5V27.0833H41.6667V20.8333H8.33335ZM18.75 16.6667H31.25V12.5H18.75V16.6667Z" fill="#040F08"/>
    </g>
    </svg>