<svg width="200" height="53" viewBox="0 0 200 53" xmlns="http://www.w3.org/2000/svg">
	<path d="M26.9817 24.8185C26.6068 25.0192 26.2911 25.3145 26.0658 25.675C25.078 27.3067 25.4063 29.1853 25.4063 30.9889V38.7346C25.4063 40.1475 25.6813 41.9636 24.9624 43.2264C24.6598 43.7588 24.2222 44.2021 23.6938 44.5116C23.1653 44.8211 22.5646 44.9858 21.9523 44.9893H13.0531V19.6704C13.0531 18.4559 13.5356 17.2911 14.3943 16.4323C15.2531 15.5735 16.4179 15.0911 17.6324 15.0911H24.803L24.9343 24.2278L23.0213 21.6584C23.8265 19.4548 25.3738 17.6003 27.3974 16.4133C29.3979 15.2473 31.8048 15.3411 34.6086 15.3411L34.4742 24.3184H32.8832C31.3515 24.3153 28.5977 23.9183 26.9817 24.8185Z" fill="currentColor"/>
	<path d="M63.5846 45.105V18.7952C63.5846 17.8459 63.9617 16.9356 64.6329 16.2644C65.3041 15.5932 66.2144 15.2161 67.1636 15.2161H75.9346V40.9727C75.9346 42.0687 75.4993 43.1197 74.7243 43.8947C73.9494 44.6696 72.8983 45.105 71.8023 45.105H63.5846Z" fill="currentColor"/>
	<path d="M77.3225 45.105V40.3007C77.3228 38.8199 77.8706 37.3916 78.8604 36.2903L93.2234 20.2987L95.2458 24.2341H77.7601V18.4357C77.7601 18.0129 77.8434 17.5942 78.0052 17.2036C78.167 16.813 78.4042 16.4581 78.7031 16.1591C79.0021 15.8602 79.357 15.623 79.7476 15.4612C80.1382 15.2994 80.5569 15.2161 80.9797 15.2161H105.248V22.3179L89.3475 40.0193L87.3251 36.0871H105.849V41.4416C105.849 41.9228 105.754 42.3993 105.571 42.844C105.387 43.2886 105.117 43.6927 104.776 44.0329C104.436 44.3732 104.032 44.643 103.588 44.827C103.143 45.0109 102.666 45.1054 102.185 45.105H77.3225Z" fill="currentColor"/>
	<path d="M182.543 45.2519C179.117 45.2519 176.076 44.5955 173.419 43.2826C170.869 42.0648 168.705 40.1651 167.167 37.7937C165.686 35.3717 164.901 32.5874 164.901 29.7479C164.901 26.9085 165.686 24.1242 167.167 21.7021C168.711 19.3419 170.873 17.4517 173.419 16.2382C176.076 14.9254 179.117 14.269 182.543 14.269C186.184 14.269 189.298 15.0525 191.886 16.6196C194.386 18.0829 196.284 20.3874 197.241 23.1212L189.901 26.7284C189.354 27.0034 188.727 27.0804 188.129 26.9466C187.531 26.8127 186.998 26.4761 186.619 25.9939C186.28 25.5413 185.873 25.1438 185.413 24.8154C184.559 24.2055 183.536 23.8777 182.487 23.8777C181.598 23.8721 180.723 24.0983 179.949 24.5341C179.147 24.9825 178.495 25.6564 178.073 26.4721C177.585 27.4842 177.351 28.6 177.392 29.7229C177.354 30.8584 177.59 31.9862 178.08 33.0113C178.493 33.8402 179.147 34.5253 179.955 34.9774C180.73 35.4132 181.605 35.6394 182.493 35.6338C183.542 35.6339 184.565 35.306 185.419 34.6961C186.309 34.0709 187.064 33.0696 187.685 31.6922L195.694 35.6276C195.911 35.7345 196.106 35.8842 196.265 36.0676C196.424 36.251 196.544 36.4645 196.619 36.6954C196.694 36.9263 196.722 37.1699 196.701 37.4117C196.68 37.6535 196.61 37.8887 196.497 38.1032C195.431 40.0917 193.838 41.7485 191.893 42.8919C189.3 44.4652 186.184 45.2519 182.543 45.2519Z" fill="currentColor"/>
	<path d="M8.07986 17.6293H11.5526C11.7497 17.6293 11.9448 17.5904 12.1268 17.515C12.3088 17.4396 12.4742 17.3291 12.6136 17.1898C12.7529 17.0505 12.8634 16.8851 12.9388 16.703C13.0142 16.521 13.053 16.3259 13.053 16.1289C13.053 15.5172 12.9325 14.9116 12.6985 14.3465C12.4644 13.7815 12.1214 13.2681 11.6889 12.8356C11.2564 12.4031 10.743 12.06 10.1779 11.826C9.61282 11.5919 9.00719 11.4714 8.39557 11.4714H2.63159V12.181C2.63159 12.8965 2.77252 13.6049 3.04632 14.266C3.32012 14.927 3.72144 15.5276 4.22735 16.0335C4.73327 16.5394 5.33388 16.9407 5.9949 17.2145C6.65591 17.4883 7.36438 17.6293 8.07986 17.6293Z" fill="currentColor"/>
	<path d="M69.852 13.6063H74.2281C74.626 13.6063 75.0076 13.4482 75.289 13.1669C75.5704 12.8855 75.7285 12.5039 75.7285 12.1059V11.5652C75.7285 10.3297 75.2379 9.14469 74.3645 8.27076C73.4912 7.39682 72.3065 6.90543 71.071 6.9046H64.4037V8.15492C64.4033 8.87066 64.5439 9.57947 64.8175 10.2408C65.0911 10.9022 65.4924 11.5032 65.9983 12.0094C66.5043 12.5157 67.1051 12.9173 67.7663 13.1913C68.4275 13.4653 69.1362 13.6063 69.852 13.6063Z" fill="currentColor"/>
	<path d="M36.0808 24.259C38.5564 24.1715 41.0352 24.259 43.5108 24.2184C44.8393 24.2028 46.2334 23.9371 47.5494 24.2184C48.2542 24.3035 48.9023 24.6474 49.3678 25.1835C49.8334 25.7195 50.0832 26.4093 50.0687 27.1191C50.0687 27.4598 49.9593 27.4067 49.6624 27.4067H45.4113C42.4668 27.4067 40.0318 27.7505 38.1063 28.4382C36.1808 29.1259 34.7513 30.1397 33.8177 31.4796C32.8555 32.92 32.366 34.6244 32.4174 36.3559C32.3982 37.9829 32.8113 39.5858 33.6145 41.0008C34.4489 42.43 35.6759 43.5898 37.1498 44.3423C38.7106 45.1758 40.6507 45.5926 42.9701 45.5926C45.4332 45.5926 47.392 45.0498 48.8466 43.9641C49.7419 43.2861 50.4569 42.3984 50.9283 41.379C50.9336 41.3695 50.9418 41.3619 50.9518 41.3575C50.9618 41.353 50.9729 41.352 50.9835 41.3545C50.9941 41.3569 51.0037 41.3628 51.0106 41.3712C51.0176 41.3796 51.0216 41.39 51.0221 41.4009L50.919 45.5613C50.9189 45.5749 50.9241 45.588 50.9334 45.5979C50.9427 45.6077 50.9554 45.6137 50.969 45.6145H58.299C60.2526 45.6145 61.9437 43.3983 61.9437 41.3603V29.079C61.9437 26.4471 61.5779 23.662 60.3808 21.3208C60.1019 20.7786 59.7744 20.2628 59.4024 19.7798C58.9701 19.2067 58.4764 18.6826 57.9301 18.2169C55.2451 15.935 51.4566 15.3411 46.571 15.3411L36.1246 15.4068L36.0964 16.5539L36.0808 24.259ZM50.497 33.0769C50.497 34.6992 50.1375 36.856 48.4777 37.6656C46.9304 38.4189 45.1706 38.5533 43.4764 38.5627C42.0886 38.5627 39.7255 38.6783 40.5726 36.0339C40.9455 34.9501 41.6514 34.012 42.5895 33.3535C43.5276 32.695 44.6498 32.3498 45.7958 32.3674H50.4564C50.4691 32.3673 50.4814 32.3722 50.4907 32.3809C50.4999 32.3896 50.5056 32.4015 50.5064 32.4142L50.497 33.0769Z" fill="currentColor"/>
	<path d="M106.746 19.6891V15.2161H125.969C127.301 15.2161 128.379 16.0663 128.379 17.1166V22.0272H109.081C108.774 22.0272 108.47 21.9667 108.186 21.8492C107.903 21.7317 107.645 21.5594 107.429 21.3422C107.212 21.1251 107.04 20.8673 106.923 20.5836C106.805 20.3 106.745 19.996 106.746 19.6891ZM123.075 44.6955C119.128 44.6955 116.054 43.7442 113.854 41.8417C111.653 39.9391 110.556 37.0154 110.562 33.0707L110.303 6.8421H122.4V32.9644C122.377 33.3349 122.427 33.7063 122.549 34.0571C122.67 34.408 122.859 34.7314 123.106 35.0087C123.332 35.2466 123.604 35.4346 123.907 35.5606C124.21 35.6866 124.535 35.7478 124.863 35.7401C125.781 35.7579 126.684 35.5022 127.457 35.0055C127.466 34.9997 127.476 34.9959 127.487 34.9945C127.498 34.9931 127.508 34.9941 127.519 34.9974C127.529 35.0007 127.538 35.0062 127.546 35.0136C127.554 35.0209 127.56 35.0299 127.564 35.0399L130.361 43.167C129.343 43.7323 128.236 44.1222 127.088 44.3204C125.762 44.5737 124.415 44.7003 123.066 44.6986L123.075 44.6955Z" fill="currentColor"/>
	<path d="M160.791 20.6581C159.317 18.3947 157.233 16.5946 154.78 15.4662C152.22 14.288 149.43 13.6913 146.612 13.7188C143.61 13.6727 140.641 14.3469 137.954 15.685C135.471 16.9197 133.373 18.8089 131.886 21.1489C130.389 23.5569 129.62 26.3469 129.673 29.1822C129.634 31.9931 130.412 34.7549 131.915 37.1311C133.463 39.5292 135.648 41.4492 138.226 42.6762C140.935 44.0266 144.112 44.7007 147.759 44.6986C150.747 44.6986 153.306 44.2891 155.436 43.4702C157.482 42.7079 159.324 41.483 160.819 39.8911L154.583 33.602C154.524 33.5428 154.446 33.5065 154.363 33.4997C154.28 33.4928 154.197 33.5158 154.13 33.5645C153.333 34.1521 152.469 34.6431 151.557 35.0274C150.465 35.4263 149.306 35.6119 148.144 35.5744C146.961 35.6073 145.785 35.3733 144.705 34.8899C143.778 34.4558 143.012 33.739 142.517 32.8425C142.381 32.5965 142.264 32.3405 142.167 32.0766H161.472C161.861 32.076 162.236 31.9281 162.521 31.6625C162.806 31.3969 162.979 31.0334 163.007 30.645V30.6294C163.044 30.1011 163.063 29.6198 163.063 29.1822C163.071 25.7938 162.314 22.9524 160.791 20.6581ZM150.938 27.5349H147.465C146.02 27.5349 144.635 26.9608 143.613 25.9391C142.591 24.9174 142.017 23.5316 142.017 22.0866V21.3802H147.781C148.394 21.3793 149.001 21.4995 149.568 21.7337C150.135 21.968 150.649 22.3117 151.083 22.7452C151.516 23.1787 151.86 23.6935 152.094 24.2601C152.329 24.8267 152.449 25.4339 152.448 26.047C152.448 26.2448 152.409 26.4407 152.333 26.6233C152.257 26.806 152.145 26.9718 152.005 27.1112C151.865 27.2507 151.698 27.361 151.515 27.4359C151.332 27.5107 151.136 27.5486 150.938 27.5474V27.5349Z" fill="currentColor"/>
	</svg>
	